<?xml version="1.0" standalone="no"?>
<!DOCTYPE svg PUBLIC "-//W3C//DTD SVG 20010904//EN"
 "http://www.w3.org/TR/2001/REC-SVG-20010904/DTD/svg10.dtd">
<svg version="1.0" xmlns="http://www.w3.org/2000/svg"
 width="484.000000pt" height="484.000000pt" viewBox="0 0 484.000000 484.000000"
 preserveAspectRatio="xMidYMid meet">
<metadata>
Created by potrace 1.11, written by Peter Selinger 2001-2013
</metadata>
<g transform="translate(0.000000,484.000000) scale(0.100000,-0.100000)"
fill="#000000" stroke="none">
<path d="M2342 4328 c-51 -90 -97 -170 -102 -178 -49 -81 -90 -153 -90 -156 0
-3 -32 -59 -71 -127 -39 -67 -80 -138 -91 -157 -11 -19 -35 -60 -53 -90 -18
-30 -93 -158 -165 -285 -73 -126 -147 -255 -165 -285 -105 -180 -181 -312
-208 -360 -44 -80 -72 -123 -91 -140 -10 -7 -31 -41 -48 -74 -17 -34 -34 -63
-38 -66 -4 -3 -32 -57 -64 -120 -31 -63 -66 -131 -79 -151 -12 -20 -58 -99
-101 -175 -140 -245 -258 -448 -281 -484 -12 -19 -35 -60 -51 -90 -16 -30 -32
-57 -35 -60 -13 -12 -76 -109 -100 -155 -14 -27 -57 -102 -94 -165 -37 -63
-79 -135 -93 -160 -14 -25 -35 -61 -46 -81 -47 -80 -107 -185 -116 -199 -42
-65 -128 -225 -122 -227 4 -1 1079 -3 2390 -6 1850 -4 2382 -2 2380 7 -2 7
-61 114 -133 239 -71 125 -140 244 -151 265 -98 176 -198 348 -206 353 -5 3
-9 9 -9 13 2 10 -29 67 -69 126 -33 47 -142 237 -247 430 -34 62 -84 149 -131
228 -18 29 -32 55 -32 58 0 2 -11 21 -23 42 -26 40 -58 97 -122 212 -23 41
-66 118 -96 170 -30 52 -81 142 -114 200 -32 58 -68 121 -80 140 -12 19 -62
105 -110 190 -48 85 -102 180 -120 210 -18 30 -43 75 -55 100 -12 25 -28 52
-35 60 -7 8 -27 44 -46 80 -18 36 -36 67 -40 70 -3 3 -27 46 -54 95 -26 50
-51 95 -55 100 -4 6 -67 116 -140 245 -73 129 -141 249 -151 265 -10 17 -46
81 -81 142 -35 62 -65 113 -68 113 -3 0 -47 -73 -98 -162z"/>
</g>
</svg>
